<svg version="1" xmlns="http://www.w3.org/2000/svg" width="874.667" height="874.667" viewBox="0 0 656 656"><path d="M261.7 15.5c-9.5 4.9-14.7 13.2-14.7 23.4s7.9 20.9 17.5 23.6c1.7.5 12.5.9 24 1 11.6.1 21.6.5 22.3.9.7.4 1.2.4 1.2-.1 0-.4 8-.7 17.7-.6 9.8.2 18.4.3 19.1.3h27c.9 0 8.5-.1 16.7-.3 8.3-.1 15.4-.1 15.8.1.5.2 3.9.6 7.5.7 3.7.2 8.1.6 9.7.8 1.7.3 5 .8 7.5 1.2 18.8 2.7 46.8 12.4 64.3 22.2 3.3 1.8 6.1 3.3 6.3 3.3.8 0 20.1 13.4 24.9 17.4 10.8 8.8 22.6 20.6 29.6 29.6 2.4 3 4.9 5.9 5.6 6.3.7.4 1.3 1.4 1.3 2.2 0 .7.3 1.5.8 1.7 4.6 2 27.9 47.4 29.5 57.4.1 1 .6 2.4 1 3 .6 1.1 3.6 12.6 4.3 16.9.1 1.1.5 3.1.8 4.5 1.3 5.7 1.6 7.8 2.2 13 .3 3 .8 6.8 1 8.5.5 4 .4 28.9-.1 34.5-1.4 15.2-3.6 26.8-7.6 40.5-2.9 9.9-12.5 34.3-14 35.5-.4.3-1.8 2.7-3.2 5.5-10.1 20-32.7 46.9-51.7 61.5-2.4 1.9-5 4-5.7 4.7-5.9 5.5-37.4 23.2-46.3 26-1.9.6-6.6 2.3-10.5 3.8-3.8 1.4-7 2.5-7 2.5 0-.1-.7.1-1.5.4-2.6.8-18.3 4.4-22.5 5.1-4.9.8-7.2 1.1-15.5 2-3.6.4-83.4.8-177.5.9l-171 .2-5.5 2.8c-15.3 7.7-18.7 27.1-7 40 1.7 1.9 5.5 4.4 8.3 5.7l5.2 2.2h167c149.8-.1 179.4-.4 191.5-1.9 1.9-.2 4.9-.6 6.5-.8 1.7-.1 3.9-.6 5-.9 1.1-.4 3.6-.9 5.5-1.1 1.9-.3 4.4-.7 5.5-1 34.6-7.6 65.4-20.9 92.5-40 17.5-12.3 17.1-12 34-28.7 13.6-13.4 15.5-15.5 22-23.9 9.9-12.8 10.9-14.2 11.5-16.1.4-1 1.1-1.9 1.6-1.9s.9-.4.9-.9c0-.6 1.3-2.9 2.9-5.3 4.9-7.4 14.8-26.8 19.4-38.4 5.4-13.3 11.9-34.4 13.2-42.9.5-2.8 2.4-13.6 2.9-16.3 2.1-10.1 2.9-49.1 1.3-62.2-1.7-14.8-2.2-17.9-5.2-31.5-1.9-8.7-1.8-8.2-5-18.5-3.8-12-4.1-13-6-17.5-.9-2.2-2.4-5.8-3.3-8-3.7-8.9-14.1-28.5-19-35.8-2.9-4.3-5.2-8.2-5.2-8.7s-.3-1-.7-1.2c-.5-.2-4.2-4.8-8.3-10.3-14.9-19.8-40.7-43.5-63-58-17.5-11.4-43-23.6-58.5-28.2-2.7-.8-5.6-2-6.2-2.5-.7-.6-1.3-.8-1.3-.5 0 .3-3-.3-6.6-1.3-9.9-2.9-22.4-5.3-39.9-7.7-2.7-.4-39.9-.8-82.5-1l-77.5-.3-4.8 2.5z"/><path d="M68 130.3c-9 1.3-16.5 6.8-19.7 14.6-1.5 3.6-2.6 7.7-2.5 9.6.5 8.4 3.3 14.7 8.8 19.4 3.4 3 4.6 3.7 9.9 5.7 1.1.4 78.7.8 172.5.9 93.8.1 172.5.5 175 .9 22.9 3.6 45.2 16.8 58.1 34.3 17.8 24 23.1 56 13.7 81.8-1.8 4.9-6.2 15-6.8 15.5-.3.3-1.2 1.8-2 3.5-1.7 3.4-2.2 4-10.4 13.5-8.3 9.7-24.2 19.9-37.4 24-13.8 4.3-13.5 4.3-111.7 4.5-52.3.1-96.9.5-99 .9-2.2.5-4.1.7-4.3.7-.1-.1-.8.3-1.5.8-10.6 8.4-13.9 14-13.9 23.2 0 10.2 5.3 18.2 15.2 23.1l4.5 2.2h94c94.7-.1 105.6-.3 115.3-2.4 3-.7 5.9-1.3 6.5-1.4.7-.2 1.9-.5 2.7-.8 23.1-7.4 34.3-12.9 50.5-25.1 6.9-5.1 22.8-21.9 28.1-29.7 4.4-6.4 8.2-12.7 12.2-20.7 5-9.6 9.6-24.9 11.9-39.3 1.5-9 .8-39-1.1-47.5-3-14.1-7-25.3-13.4-37.5-9.6-18.5-26.6-37.9-43.2-49.5-20.3-14.1-45.1-23.2-68.7-25.1-11.2-1-336.9-1-343.3-.1z"/><path d="M155.8 246.4c-6.7 3.1-10.6 6.8-13.5 13.2-4.4 9.6-2.2 20.9 5.7 29.2 6 6.3 6.6 6.3 47 6l36.5-.3 5.6-2.8c8.6-4.1 11.9-7.9 14.3-16.1 1.2-4 1.2-7.9.2-12.1-.3-1.1-.5-2.4-.5-2.8.1-2.1-6.9-10.2-11.1-12.8-4.7-3-8.6-3.3-44.1-3.4-34-.2-35.7-.1-40.1 1.9zM19.5 593C8.6 595.3-.1 606.7.5 617.8c.4 7.8 1 9.8 4.2 14 3.9 5.2 5.4 6.4 9.8 8.7 3.9 1.9 6.3 2 82.4 2.3 68.3.2 79 0 83.1-1.3 21-7 23.4-35.2 3.8-46.1l-5.3-2.9h-78c-42.9-.1-79.3.2-81 .5z"/></svg>