<svg id="Layer_1" xmlns="http://www.w3.org/2000/svg" viewBox="0 0 19 14"><style>.st0{fill:#fff}</style><g id="Page-1"><g id="IT-Security-Experts-FINAL" transform="translate(-395 -2553)"><g id="Swarm-Royale" transform="translate(-106 1940)"><g id="Signup" transform="translate(502 614)"><path class="st0" d="M15.8 12.8H1.2c-1.1 0-2-.9-2-2V1.3c0-1.1.9-2 2-2h14.6c1.1 0 2 .9 2 2v9.4c0 1.1-.9 2.1-2 2.1zM1.2.8c-.2 0-.4.2-.4.5v9.4c0 .3.2.5.5.5h14.6c.3 0 .5-.2.5-.5V1.3c0-.3-.2-.5-.5-.5H1.2z" id="Stroke-1"/><path class="st0" d="M8.5 8.8c-.2 0-.3-.1-.5-.2l-7.5-6C.2 2.3.2 1.9.4 1.5c.3-.3.7-.4 1.1-.1l7 5.6 7-5.6c.3-.3.8-.2 1.1.1.3.3.2.8-.1 1.1L9 8.6c-.2.1-.3.2-.5.2z" id="Stroke-3"/></g></g></g></g></svg>